<svg width="84" height="77" viewBox="0 0 84 77" fill="none" xmlns="http://www.w3.org/2000/svg">
<rect y="6" width="81" height="71" rx="35.5" fill="#2D3446"/>
<path d="M25.26 18.768C28.068 18.768 31.5347 20.6053 35.66 24.28C41.276 30.7973 44.084 37.5573 44.084 44.56C44.084 51.528 40.6693 56.2947 33.84 58.86L32.384 59.068C28.7093 59.068 25.832 56.3987 23.752 51.06H23.648C22.4347 55.3933 20.8053 57.56 18.76 57.56H18.448C15.744 57.56 13.8893 52.464 12.884 42.272V39.256C12.9533 35.6507 13.976 33.588 15.952 33.068C16.5067 33.068 17.0093 33.6053 17.46 34.68C16.4547 36.0667 15.952 37.696 15.952 39.568V40.036C15.952 46.4493 16.888 51.216 18.76 54.336C20.1467 53.3307 21.1693 49.2053 21.828 41.96C21.828 36.1013 22.2613 33.172 23.128 33.172L23.648 33.068C24.792 33.068 25.364 34.1947 25.364 36.448L25.052 42.168C25.052 46.016 26.248 50.02 28.64 54.18C29.8187 55.3587 31.0147 55.948 32.228 55.948C34.204 55.948 36.3187 54.7173 38.572 52.256C40.1667 50.1413 40.964 47.472 40.964 44.248C40.964 37.1067 37.8267 30.5547 31.552 24.592C29.9227 23.2747 27.4267 22.2 24.064 21.368L23.648 20.38C23.8907 19.3053 24.428 18.768 25.26 18.768Z" fill="#57C4E5"/>
<path d="M55.7174 21.836H56.5494C62.2 21.836 65.8227 23.8813 67.4174 27.972L67.5734 29.636V30.156C67.5734 34.1773 65.1294 37.904 60.2414 41.336C59.0627 41.6827 58.4734 42.064 58.4734 42.48C59.86 47.784 60.5534 52.1173 60.5534 55.48V56.156C60.5534 57.5427 59.9814 58.236 58.8374 58.236C57.9707 58.132 57.5374 57.6987 57.5374 56.936V55.636C57.5374 51.6493 56.8094 47.316 55.3534 42.636C52.5454 42.3933 50.9854 41.6307 50.6734 40.348V40.036C50.6734 39.412 51.1587 38.9267 52.1294 38.58L54.4174 39.36V39.256C53.2387 34.1253 52.6494 30.6587 52.6494 28.856C52.6494 27.8507 53.2387 27.348 54.4174 27.348C55.492 27.348 56.0294 29.1853 56.0294 32.86L57.5374 39.048C60.0334 38.216 61.9747 36.5867 63.3614 34.16C64.0894 32.7733 64.4534 31.5427 64.4534 30.468V29.792C64.4534 26.9493 62.0267 25.3373 57.1734 24.956H55.0414C50.292 25.476 47.9174 26.6027 47.9174 28.336V28.648C47.9174 29.168 48.1947 29.9827 48.7494 31.092C48.7494 31.8547 48.1427 32.34 46.9294 32.548C45.5427 31.8893 44.8494 30.5373 44.8494 28.492C44.8494 24.6787 48.472 22.46 55.7174 21.836Z" fill="#D1D646"/>
</svg>
